# File created by Blade
# Date/Time:  Tue Jan 27 19:38:14 2015
# Frame Rate: 120.000 fps
#------------------------------------------------------
:FULLY-SPECIFIED
:DEGREES
4184
root 3.805562 32.375362 1.729083 -0.432457 -27.643977 -1.319911
Spine 4.183290 -12.325305 -2.868762
Head 9.296037 29.948867 6.940497
LeftShoulder -16.321508 1.515727 29.611711
LeftArm -6.469585 31.108003 -105.624273
LeftForeArm 3.529414 -0.000000 17.557754
LeftHand 9.983090 0.000000 -3.495119
LeftHandThumb1 -26.253704 0.000000 33.147579
RightShoulder -35.265436 -34.871277 -20.408496
RightArm -9.618702 -47.419793 90.125450
RightForeArm -7.060143 -0.000000 86.197309
RightHand 30.914551 -0.000000 -30.271422
RightHandThumb1 -24.326973 -0.000000 -32.862282
LeftUpLeg 9.722045 12.404177 -1.218880
LeftLeg -0.970851 -0.000000 0.000000
LeftFoot -21.191223 23.267685 -24.891731
LeftToeBase 15.141048 -0.000000 -0.000000
RightUpLeg -0.470589 12.084967 5.674935
RightLeg 6.519151 -0.000000 -0.000000
RightFoot -7.382096 -6.250344 11.144432
RightToeBase 10.757622 -0.000000 -0.000000
4185
root 3.805136 32.375433 1.731111 -0.437511 -27.708034 -1.335561
Spine 4.206108 -12.280968 -2.889618
Head 9.235621 29.940829 6.895284
LeftShoulder -16.317808 1.496418 29.596284
LeftArm -6.425232 31.062039 -105.579694
LeftForeArm 3.575071 -0.000000 17.540610
LeftHand 9.894114 -0.000000 -3.294674
LeftHandThumb1 -26.253704 0.000000 33.147579
RightShoulder -35.274889 -34.832665 -20.465818
RightArm -9.512072 -46.956600 89.914008
RightForeArm -6.993254 -0.000000 86.391129
RightHand 30.806362 -0.000000 -30.270493
RightHandThumb1 -24.326973 -0.000000 -32.862282
LeftUpLeg 9.740572 12.526384 -1.190401
LeftLeg -0.964478 -0.000000 0.000000
LeftFoot -21.292728 23.204546 -25.027537
LeftToeBase 15.450639 -0.000000 -0.000000
RightUpLeg -0.465427 12.101728 5.688065
RightLeg 6.530104 -0.000000 -0.000000
RightFoot -7.359778 -6.207023 11.120185
RightToeBase 10.893287 -0.000000 -0.000000
4186
root 3.805630 32.375429 1.733116 -0.444918 -27.759465 -1.350904
Spine 4.236153 -12.266307 -2.913049
Head 9.183517 29.951142 6.869524
LeftShoulder -16.325985 1.497107 29.594855
LeftArm -6.363877 30.932895 -105.549605
LeftForeArm 3.671701 -0.000000 17.511387
LeftHand 9.889700 0.000000 -3.077093
LeftHandThumb1 -26.253704 0.000000 33.147579
RightShoulder -35.294900 -34.770647 -20.521164
RightArm -9.412273 -46.478673 89.683073
RightForeArm -7.091864 -0.000000 86.581858
RightHand 30.728417 -0.000000 -30.527347
RightHandThumb1 -24.326973 -0.000000 -32.862282
LeftUpLeg 9.767072 12.586924 -1.173537
LeftLeg -0.970749 -0.000000 0.000000
LeftFoot -21.291210 23.213193 -25.024220
LeftToeBase 15.384199 -0.000000 -0.000000
RightUpLeg -0.470597 12.090888 5.699193
RightLeg 6.567311 -0.000000 -0.000000
RightFoot -7.352056 -6.142953 11.135388
RightToeBase 10.864908 -0.000000 -0.000000
4187
root 3.804335 32.375746 1.734223 -0.446353 -27.809726 -1.380553
Spine 4.267171 -12.252650 -2.930590
Head 9.135532 29.953682 6.866387
LeftShoulder -16.340127 1.540763 29.594695
LeftArm -6.275065 30.869366 -105.501213
LeftForeArm 3.670090 0.000000 17.525858
LeftHand 9.961627 0.000000 -2.894044
LeftHandThumb1 -26.253704 0.000000 33.147579
RightShoulder -35.358587 -34.721477 -20.529371
RightArm -9.244536 -45.949566 89.349784
RightForeArm -7.038416 0.000000 86.820506
RightHand 30.982340 0.000000 -29.581371
RightHandThumb1 -24.326973 -0.000000 -32.862282
LeftUpLeg 9.782180 12.692250 -1.132844
LeftLeg -0.949261 -0.000000 0.000000
LeftFoot -21.296594 23.174680 -24.990660
LeftToeBase 15.331780 -0.000000 -0.000000
RightUpLeg -0.439614 12.208655 5.732342
RightLeg 6.535354 -0.000000 -0.000000
RightFoot -7.321243 -6.209893 11.147244
RightToeBase 10.865857 -0.000000 -0.000000
4188
root 3.804031 32.375869 1.737801 -0.466426 -27.840679 -1.405363
Spine 4.313373 -12.275436 -2.951091
Head 9.100256 29.927769 6.854915
LeftShoulder -16.335336 1.496824 29.621307
LeftArm -6.329842 30.698345 -105.518682
LeftForeArm 3.732763 -0.000000 17.606029
LeftHand 10.054781 -0.000000 -2.860823
LeftHandThumb1 -26.253704 0.000000 33.147579
RightShoulder -35.398261 -34.628611 -20.581285
RightArm -9.129655 -45.391451 89.063191
RightForeArm -7.019912 -0.000000 87.119203
RightHand 30.827712 0.000000 -29.836670
RightHandThumb1 -24.326973 -0.000000 -32.862282
LeftUpLeg 9.817845 12.746636 -1.104379
LeftLeg -0.936018 -0.000000 0.000000
LeftFoot -21.312145 23.167373 -24.976761
LeftToeBase 15.393076 -0.000000 -0.000000
RightUpLeg -0.632649 11.270424 5.704236
RightLeg 6.940292 -0.000000 -0.000000
RightFoot -7.222418 -5.266895 10.844958
RightToeBase 10.213288 -0.000000 -0.000000
